<svg width="273" height="221" viewBox="0 0 273 221" fill="none" xmlns="http://www.w3.org/2000/svg">
<rect width="272.563" height="220.238" rx="4" fill="#1D1D1D"/>
<path d="M136.384 12.4004C119.27 12.1987 102.405 16.5032 87.4805 24.8817C72.5564 33.2602 60.0994 45.4179 51.3604 60.1338L85.0133 80.1185C90.246 71.3071 97.7048 64.0275 106.641 59.0107C115.577 53.9939 125.676 51.4165 135.923 51.5373L136.384 12.4004Z" fill="#B30B8C"/>
<path d="M51.4901 59.9161C44.6894 71.3006 40.2813 83.9521 38.5352 97.0977C36.7891 110.243 37.7416 123.607 41.3346 136.372L79.0102 125.767C76.8588 118.124 76.2885 110.122 77.334 102.251C78.3795 94.3801 81.0189 86.8048 85.091 79.9881L51.4901 59.9161Z" fill="#FB4E22"/>
<path d="M41.2451 136.052C45.9986 153.163 55.3332 168.653 68.2423 180.849C81.1514 193.045 97.1451 201.486 114.499 205.261L122.818 167.016C112.428 164.756 102.851 159.702 95.1217 152.399C87.3921 145.096 81.8028 135.822 78.9566 125.576L41.2451 136.052Z" fill="#408AD3"/>
<path d="M112.996 204.922C128.775 208.616 145.226 208.322 160.863 204.064C176.5 199.806 190.829 191.719 202.557 180.535L175.545 152.211C168.523 158.908 159.943 163.75 150.58 166.299C141.217 168.849 131.367 169.025 121.918 166.813L112.996 204.922Z" fill="#B30B8C"/>
<path d="M229.158 83.5958C223.413 63.1158 211.131 45.0747 194.184 32.2206C177.237 19.3666 156.553 12.4041 135.282 12.3937L135.263 51.5332C147.999 51.5395 160.384 55.7084 170.532 63.405C180.679 71.1016 188.033 81.904 191.473 94.1668L229.158 83.5958Z" fill="#903EFA"/>
<path d="M202.553 180.539C215.427 168.262 224.699 152.699 229.366 135.533C234.033 118.367 233.917 100.252 229.03 83.1468L191.396 93.8979C194.322 104.14 194.392 114.987 191.597 125.265C188.803 135.544 183.251 144.862 175.543 152.213L202.553 180.539Z" fill="#73F47E"/>
<path d="M199.565 17.4649V24.7376H198.684V18.3882H198.642L196.866 19.5672V18.6723L198.684 17.4649H199.565ZM204.029 24.837C203.494 24.837 203.038 24.6914 202.662 24.4003C202.285 24.1067 201.998 23.6817 201.799 23.1254C201.6 22.5667 201.5 21.892 201.5 21.1012C201.5 20.3153 201.6 19.6441 201.799 19.0878C202 18.529 202.289 18.1029 202.665 17.8093C203.044 17.5134 203.499 17.3655 204.029 17.3655C204.559 17.3655 205.012 17.5134 205.389 17.8093C205.768 18.1029 206.057 18.529 206.255 19.0878C206.457 19.6441 206.557 20.3153 206.557 21.1012C206.557 21.892 206.458 22.5667 206.259 23.1254C206.06 23.6817 205.772 24.1067 205.396 24.4003C205.02 24.6914 204.564 24.837 204.029 24.837ZM204.029 24.0558C204.559 24.0558 204.971 23.8001 205.265 23.2887C205.558 22.7774 205.705 22.0482 205.705 21.1012C205.705 20.4715 205.637 19.9353 205.503 19.4926C205.37 19.0499 205.178 18.7125 204.927 18.4805C204.679 18.2485 204.379 18.1325 204.029 18.1325C203.503 18.1325 203.092 18.3917 202.797 18.9102C202.501 19.4263 202.353 20.1566 202.353 21.1012C202.353 21.731 202.419 22.266 202.552 22.7064C202.684 23.1467 202.875 23.4817 203.123 23.7113C203.374 23.941 203.676 24.0558 204.029 24.0558ZM208.278 24.7944C208.103 24.7944 207.952 24.7317 207.827 24.6062C207.701 24.4807 207.639 24.3304 207.639 24.1552C207.639 23.98 207.701 23.8297 207.827 23.7042C207.952 23.5788 208.103 23.516 208.278 23.516C208.453 23.516 208.603 23.5788 208.729 23.7042C208.854 23.8297 208.917 23.98 208.917 24.1552C208.917 24.2712 208.887 24.3778 208.828 24.4748C208.771 24.5719 208.694 24.65 208.597 24.7092C208.503 24.766 208.396 24.7944 208.278 24.7944ZM212.591 24.837C212.122 24.837 211.704 24.7565 211.337 24.5956C210.972 24.4346 210.682 24.2109 210.467 23.9244C210.254 23.6356 210.138 23.3006 210.119 22.9194H211.014C211.033 23.1538 211.113 23.3562 211.255 23.5267C211.397 23.6948 211.583 23.825 211.813 23.9173C212.043 24.0096 212.297 24.0558 212.576 24.0558C212.889 24.0558 213.166 24.0013 213.407 23.8924C213.649 23.7835 213.838 23.632 213.976 23.4379C214.113 23.2438 214.182 23.0189 214.182 22.7632C214.182 22.4957 214.115 22.2601 213.983 22.0565C213.85 21.8505 213.656 21.6896 213.4 21.5735C213.145 21.4575 212.832 21.3995 212.463 21.3995H211.88V20.6183H212.463C212.752 20.6183 213.005 20.5662 213.223 20.462C213.443 20.3579 213.615 20.2111 213.738 20.0217C213.863 19.8323 213.926 19.6098 213.926 19.3541C213.926 19.1079 213.871 18.8936 213.762 18.7113C213.654 18.529 213.5 18.387 213.301 18.2852C213.104 18.1834 212.872 18.1325 212.605 18.1325C212.354 18.1325 212.117 18.1787 211.895 18.271C211.674 18.361 211.494 18.4923 211.355 18.6652C211.215 18.8356 211.139 19.0416 211.128 19.2831H210.275C210.289 18.9019 210.404 18.5681 210.62 18.2816C210.835 17.9928 211.117 17.7679 211.465 17.6069C211.815 17.4459 212.2 17.3655 212.619 17.3655C213.069 17.3655 213.455 17.4566 213.777 17.6389C214.099 17.8188 214.346 18.0567 214.519 18.3527C214.692 18.6486 214.778 18.9682 214.778 19.3115C214.778 19.721 214.67 20.0702 214.455 20.3591C214.242 20.6479 213.952 20.8479 213.585 20.9592V21.016C214.044 21.0918 214.403 21.2871 214.661 21.602C214.919 21.9145 215.048 22.3015 215.048 22.7632C215.048 23.1585 214.94 23.5137 214.725 23.8285C214.512 24.141 214.221 24.3872 213.851 24.5672C213.482 24.7471 213.062 24.837 212.591 24.837ZM218.958 24.837C218.489 24.837 218.071 24.7565 217.704 24.5956C217.34 24.4346 217.05 24.2109 216.834 23.9244C216.621 23.6356 216.505 23.3006 216.486 22.9194H217.381C217.4 23.1538 217.481 23.3562 217.623 23.5267C217.765 23.6948 217.95 23.825 218.18 23.9173C218.41 24.0096 218.664 24.0558 218.944 24.0558C219.256 24.0558 219.533 24.0013 219.775 23.8924C220.016 23.7835 220.205 23.632 220.343 23.4379C220.48 23.2438 220.549 23.0189 220.549 22.7632C220.549 22.4957 220.482 22.2601 220.35 22.0565C220.217 21.8505 220.023 21.6896 219.767 21.5735C219.512 21.4575 219.199 21.3995 218.83 21.3995H218.248V20.6183H218.83C219.119 20.6183 219.372 20.5662 219.59 20.462C219.81 20.3579 219.982 20.2111 220.105 20.0217C220.23 19.8323 220.293 19.6098 220.293 19.3541C220.293 19.1079 220.239 18.8936 220.13 18.7113C220.021 18.529 219.867 18.387 219.668 18.2852C219.472 18.1834 219.24 18.1325 218.972 18.1325C218.721 18.1325 218.484 18.1787 218.262 18.271C218.042 18.361 217.862 18.4923 217.722 18.6652C217.582 18.8356 217.507 19.0416 217.495 19.2831H216.642C216.657 18.9019 216.771 18.5681 216.987 18.2816C217.202 17.9928 217.484 17.7679 217.832 17.6069C218.182 17.4459 218.567 17.3655 218.986 17.3655C219.436 17.3655 219.822 17.4566 220.144 17.6389C220.466 17.8188 220.713 18.0567 220.886 18.3527C221.059 18.6486 221.145 18.9682 221.145 19.3115C221.145 19.721 221.038 20.0702 220.822 20.3591C220.609 20.6479 220.319 20.8479 219.952 20.9592V21.016C220.411 21.0918 220.77 21.2871 221.028 21.602C221.286 21.9145 221.415 22.3015 221.415 22.7632C221.415 23.1585 221.307 23.5137 221.092 23.8285C220.879 24.141 220.588 24.3872 220.218 24.5672C219.849 24.7471 219.429 24.837 218.958 24.837ZM226.575 23.374V22.9905C226.575 22.7253 226.629 22.4826 226.738 22.2625C226.85 22.0399 227.011 21.8624 227.221 21.7298C227.434 21.5949 227.692 21.5274 227.995 21.5274C228.303 21.5274 228.561 21.5949 228.77 21.7298C228.978 21.8624 229.135 22.0399 229.242 22.2625C229.348 22.4826 229.402 22.7253 229.402 22.9905V23.374C229.402 23.6391 229.347 23.883 229.238 24.1055C229.132 24.3257 228.973 24.5032 228.762 24.6382C228.554 24.7708 228.298 24.837 227.995 24.837C227.688 24.837 227.428 24.7708 227.218 24.6382C227.007 24.5032 226.847 24.3257 226.738 24.1055C226.629 23.883 226.575 23.6391 226.575 23.374ZM227.299 22.9905V23.374C227.299 23.5941 227.351 23.7918 227.456 23.967C227.56 24.1398 227.74 24.2262 227.995 24.2262C228.244 24.2262 228.419 24.1398 228.521 23.967C228.625 23.7918 228.677 23.5941 228.677 23.374V22.9905C228.677 22.7703 228.628 22.5738 228.528 22.401C228.429 22.2258 228.251 22.1382 227.995 22.1382C227.747 22.1382 227.568 22.2258 227.459 22.401C227.353 22.5738 227.299 22.7703 227.299 22.9905ZM222.953 19.212V18.8285C222.953 18.5634 223.007 18.3207 223.116 18.1005C223.227 17.878 223.388 17.7004 223.599 17.5679C223.812 17.4329 224.07 17.3655 224.373 17.3655C224.681 17.3655 224.939 17.4329 225.147 17.5679C225.356 17.7004 225.513 17.878 225.62 18.1005C225.726 18.3207 225.78 18.5634 225.78 18.8285V19.212C225.78 19.4772 225.725 19.721 225.616 19.9436C225.51 20.1637 225.351 20.3413 225.14 20.4762C224.932 20.6088 224.676 20.6751 224.373 20.6751C224.066 20.6751 223.806 20.6088 223.596 20.4762C223.385 20.3413 223.225 20.1637 223.116 19.9436C223.007 19.721 222.953 19.4772 222.953 19.212ZM223.677 18.8285V19.212C223.677 19.4322 223.729 19.6299 223.833 19.8051C223.938 19.9779 224.118 20.0643 224.373 20.0643C224.622 20.0643 224.797 19.9779 224.899 19.8051C225.003 19.6299 225.055 19.4322 225.055 19.212V18.8285C225.055 18.6083 225.005 18.4119 224.906 18.239C224.807 18.0638 224.629 17.9762 224.373 17.9762C224.125 17.9762 223.946 18.0638 223.837 18.239C223.731 18.4119 223.677 18.6083 223.677 18.8285ZM223.223 24.7376L228.223 17.4649H229.032L224.032 24.7376H223.223Z" fill="white"/>
<path d="M235.174 149.237V148.512L238.37 143.455H238.895V144.578H238.54L236.125 148.399V148.455H240.429V149.237H235.174ZM238.597 150.728V149.017V148.679V143.455H239.435V150.728H238.597ZM242.043 150.785C241.868 150.785 241.718 150.722 241.592 150.597C241.467 150.471 241.404 150.321 241.404 150.146C241.404 149.971 241.467 149.82 241.592 149.695C241.718 149.569 241.868 149.507 242.043 149.507C242.219 149.507 242.369 149.569 242.494 149.695C242.62 149.82 242.683 149.971 242.683 150.146C242.683 150.262 242.653 150.368 242.594 150.465C242.537 150.562 242.46 150.641 242.363 150.7C242.268 150.757 242.162 150.785 242.043 150.785ZM245.86 143.455V150.728H244.979V144.379H244.937L243.161 145.558V144.663L244.979 143.455H245.86ZM250.267 143.356C250.565 143.358 250.864 143.415 251.162 143.526C251.46 143.638 251.732 143.822 251.979 144.08C252.225 144.336 252.422 144.685 252.572 145.128C252.721 145.571 252.795 146.126 252.795 146.794C252.795 147.44 252.734 148.014 252.611 148.516C252.49 149.015 252.315 149.437 252.085 149.78C251.858 150.123 251.581 150.384 251.254 150.561C250.93 150.739 250.563 150.828 250.153 150.828C249.746 150.828 249.383 150.747 249.063 150.586C248.746 150.423 248.485 150.197 248.282 149.908C248.081 149.617 247.952 149.279 247.895 148.896H248.761C248.839 149.23 248.994 149.505 249.226 149.723C249.461 149.939 249.77 150.046 250.153 150.046C250.714 150.046 251.157 149.801 251.481 149.311C251.808 148.821 251.971 148.129 251.971 147.234H251.915C251.782 147.433 251.625 147.604 251.442 147.749C251.26 147.893 251.058 148.004 250.835 148.083C250.613 148.161 250.376 148.2 250.125 148.2C249.708 148.2 249.326 148.097 248.978 147.891C248.632 147.683 248.355 147.397 248.147 147.035C247.941 146.67 247.838 146.254 247.838 145.785C247.838 145.34 247.937 144.933 248.136 144.563C248.337 144.192 248.619 143.896 248.981 143.676C249.346 143.455 249.774 143.349 250.267 143.356ZM250.267 144.137C249.969 144.137 249.7 144.212 249.461 144.361C249.224 144.508 249.036 144.707 248.896 144.958C248.759 145.206 248.69 145.482 248.69 145.785C248.69 146.088 248.756 146.364 248.889 146.612C249.024 146.859 249.207 147.055 249.439 147.202C249.674 147.346 249.94 147.419 250.239 147.419C250.463 147.419 250.673 147.375 250.867 147.287C251.061 147.197 251.23 147.075 251.375 146.921C251.522 146.765 251.636 146.589 251.719 146.392C251.802 146.193 251.844 145.986 251.844 145.771C251.844 145.487 251.775 145.22 251.638 144.972C251.503 144.723 251.316 144.522 251.077 144.368C250.84 144.214 250.57 144.137 250.267 144.137ZM257.899 149.365V148.981C257.899 148.716 257.954 148.473 258.063 148.253C258.174 148.031 258.335 147.853 258.545 147.72C258.759 147.585 259.017 147.518 259.32 147.518C259.627 147.518 259.885 147.585 260.094 147.72C260.302 147.853 260.46 148.031 260.566 148.253C260.673 148.473 260.726 148.716 260.726 148.981V149.365C260.726 149.63 260.671 149.874 260.563 150.096C260.456 150.316 260.297 150.494 260.087 150.629C259.878 150.761 259.623 150.828 259.32 150.828C259.012 150.828 258.753 150.761 258.542 150.629C258.331 150.494 258.171 150.316 258.063 150.096C257.954 149.874 257.899 149.63 257.899 149.365ZM258.624 148.981V149.365C258.624 149.585 258.676 149.782 258.78 149.958C258.884 150.13 259.064 150.217 259.32 150.217C259.568 150.217 259.743 150.13 259.845 149.958C259.949 149.782 260.001 149.585 260.001 149.365V148.981C260.001 148.761 259.952 148.564 259.852 148.392C259.753 148.216 259.575 148.129 259.32 148.129C259.071 148.129 258.892 148.216 258.783 148.392C258.677 148.564 258.624 148.761 258.624 148.981ZM254.277 145.203V144.819C254.277 144.554 254.331 144.311 254.44 144.091C254.552 143.869 254.713 143.691 254.923 143.558C255.136 143.424 255.394 143.356 255.697 143.356C256.005 143.356 256.263 143.424 256.472 143.558C256.68 143.691 256.837 143.869 256.944 144.091C257.05 144.311 257.104 144.554 257.104 144.819V145.203C257.104 145.468 257.049 145.712 256.94 145.934C256.834 146.154 256.675 146.332 256.465 146.467C256.256 146.599 256.001 146.666 255.697 146.666C255.39 146.666 255.13 146.599 254.92 146.467C254.709 146.332 254.549 146.154 254.44 145.934C254.331 145.712 254.277 145.468 254.277 145.203ZM255.001 144.819V145.203C255.001 145.423 255.054 145.62 255.158 145.796C255.262 145.968 255.442 146.055 255.697 146.055C255.946 146.055 256.121 145.968 256.223 145.796C256.327 145.62 256.379 145.423 256.379 145.203V144.819C256.379 144.599 256.33 144.402 256.23 144.23C256.131 144.054 255.953 143.967 255.697 143.967C255.449 143.967 255.27 144.054 255.161 144.23C255.055 144.402 255.001 144.599 255.001 144.819ZM254.547 150.728L259.547 143.455H260.357L255.357 150.728H254.547Z" fill="white"/>
<path d="M162.878 207.728V215.001H161.997V208.651H161.955L160.179 209.83V208.935L161.997 207.728H162.878ZM167.342 215.1C166.807 215.1 166.351 214.954 165.975 214.663C165.598 214.37 165.311 213.945 165.112 213.388C164.913 212.83 164.813 212.155 164.813 211.364C164.813 210.578 164.913 209.907 165.112 209.351C165.313 208.792 165.602 208.366 165.978 208.072C166.357 207.776 166.811 207.628 167.342 207.628C167.872 207.628 168.325 207.776 168.702 208.072C169.081 208.366 169.369 208.792 169.568 209.351C169.77 209.907 169.87 210.578 169.87 211.364C169.87 212.155 169.771 212.83 169.572 213.388C169.373 213.945 169.085 214.37 168.709 214.663C168.333 214.954 167.877 215.1 167.342 215.1ZM167.342 214.319C167.872 214.319 168.284 214.063 168.578 213.552C168.871 213.04 169.018 212.311 169.018 211.364C169.018 210.734 168.95 210.198 168.816 209.755C168.683 209.313 168.491 208.975 168.24 208.743C167.992 208.511 167.692 208.395 167.342 208.395C166.816 208.395 166.405 208.655 166.11 209.173C165.814 209.689 165.666 210.42 165.666 211.364C165.666 211.994 165.732 212.529 165.865 212.969C165.997 213.41 166.188 213.745 166.436 213.974C166.687 214.204 166.989 214.319 167.342 214.319ZM171.591 215.057C171.416 215.057 171.265 214.995 171.14 214.869C171.014 214.744 170.952 214.593 170.952 214.418C170.952 214.243 171.014 214.093 171.14 213.967C171.265 213.842 171.416 213.779 171.591 213.779C171.766 213.779 171.916 213.842 172.042 213.967C172.167 214.093 172.23 214.243 172.23 214.418C172.23 214.534 172.2 214.641 172.141 214.738C172.084 214.835 172.007 214.913 171.91 214.972C171.816 215.029 171.709 215.057 171.591 215.057ZM175.904 215.1C175.435 215.1 175.017 215.019 174.65 214.858C174.285 214.697 173.995 214.474 173.78 214.187C173.567 213.898 173.451 213.563 173.432 213.182H174.327C174.346 213.417 174.426 213.619 174.568 213.79C174.71 213.958 174.896 214.088 175.126 214.18C175.356 214.273 175.61 214.319 175.889 214.319C176.202 214.319 176.479 214.264 176.72 214.155C176.962 214.046 177.151 213.895 177.289 213.701C177.426 213.507 177.494 213.282 177.494 213.026C177.494 212.759 177.428 212.523 177.296 212.319C177.163 212.113 176.969 211.952 176.713 211.836C176.458 211.72 176.145 211.662 175.776 211.662H175.193V210.881H175.776C176.065 210.881 176.318 210.829 176.536 210.725C176.756 210.621 176.927 210.474 177.051 210.285C177.176 210.095 177.239 209.873 177.239 209.617C177.239 209.371 177.184 209.157 177.075 208.974C176.967 208.792 176.813 208.65 176.614 208.548C176.417 208.446 176.185 208.395 175.918 208.395C175.667 208.395 175.43 208.442 175.208 208.534C174.987 208.624 174.807 208.755 174.668 208.928C174.528 209.099 174.452 209.304 174.441 209.546H173.588C173.602 209.165 173.717 208.831 173.933 208.545C174.148 208.256 174.43 208.031 174.778 207.87C175.128 207.709 175.513 207.628 175.932 207.628C176.382 207.628 176.768 207.72 177.09 207.902C177.412 208.082 177.659 208.32 177.832 208.616C178.005 208.912 178.091 209.231 178.091 209.574C178.091 209.984 177.983 210.333 177.768 210.622C177.555 210.911 177.265 211.111 176.898 211.222V211.279C177.357 211.355 177.716 211.55 177.974 211.865C178.232 212.177 178.361 212.564 178.361 213.026C178.361 213.421 178.253 213.777 178.038 214.091C177.825 214.404 177.534 214.65 177.164 214.83C176.795 215.01 176.375 215.1 175.904 215.1ZM182.271 215.1C181.802 215.1 181.384 215.019 181.017 214.858C180.653 214.697 180.363 214.474 180.147 214.187C179.934 213.898 179.818 213.563 179.799 213.182H180.694C180.713 213.417 180.794 213.619 180.936 213.79C181.078 213.958 181.263 214.088 181.493 214.18C181.723 214.273 181.977 214.319 182.257 214.319C182.569 214.319 182.846 214.264 183.088 214.155C183.329 214.046 183.518 213.895 183.656 213.701C183.793 213.507 183.862 213.282 183.862 213.026C183.862 212.759 183.795 212.523 183.663 212.319C183.53 212.113 183.336 211.952 183.08 211.836C182.825 211.72 182.512 211.662 182.143 211.662H181.561V210.881H182.143C182.432 210.881 182.685 210.829 182.903 210.725C183.123 210.621 183.295 210.474 183.418 210.285C183.543 210.095 183.606 209.873 183.606 209.617C183.606 209.371 183.552 209.157 183.443 208.974C183.334 208.792 183.18 208.65 182.981 208.548C182.785 208.446 182.552 208.395 182.285 208.395C182.034 208.395 181.797 208.442 181.575 208.534C181.355 208.624 181.175 208.755 181.035 208.928C180.895 209.099 180.82 209.304 180.808 209.546H179.955C179.97 209.165 180.084 208.831 180.3 208.545C180.515 208.256 180.797 208.031 181.145 207.87C181.495 207.709 181.88 207.628 182.299 207.628C182.749 207.628 183.135 207.72 183.457 207.902C183.779 208.082 184.026 208.32 184.199 208.616C184.372 208.912 184.458 209.231 184.458 209.574C184.458 209.984 184.351 210.333 184.135 210.622C183.922 210.911 183.632 211.111 183.265 211.222V211.279C183.724 211.355 184.083 211.55 184.341 211.865C184.599 212.177 184.728 212.564 184.728 213.026C184.728 213.421 184.62 213.777 184.405 214.091C184.192 214.404 183.901 214.65 183.531 214.83C183.162 215.01 182.742 215.1 182.271 215.1ZM189.888 213.637V213.253C189.888 212.988 189.942 212.746 190.051 212.525C190.163 212.303 190.324 212.125 190.534 211.993C190.747 211.858 191.005 211.79 191.308 211.79C191.616 211.79 191.874 211.858 192.083 211.993C192.291 212.125 192.448 212.303 192.555 212.525C192.661 212.746 192.715 212.988 192.715 213.253V213.637C192.715 213.902 192.66 214.146 192.551 214.368C192.445 214.589 192.286 214.766 192.075 214.901C191.867 215.034 191.611 215.1 191.308 215.1C191.001 215.1 190.741 215.034 190.531 214.901C190.32 214.766 190.16 214.589 190.051 214.368C189.942 214.146 189.888 213.902 189.888 213.637ZM190.612 213.253V213.637C190.612 213.857 190.664 214.055 190.769 214.23C190.873 214.403 191.053 214.489 191.308 214.489C191.557 214.489 191.732 214.403 191.834 214.23C191.938 214.055 191.99 213.857 191.99 213.637V213.253C191.99 213.033 191.941 212.837 191.841 212.664C191.742 212.489 191.564 212.401 191.308 212.401C191.06 212.401 190.881 212.489 190.772 212.664C190.666 212.837 190.612 213.033 190.612 213.253ZM186.266 209.475V209.091C186.266 208.826 186.32 208.584 186.429 208.363C186.54 208.141 186.701 207.963 186.912 207.831C187.125 207.696 187.383 207.628 187.686 207.628C187.994 207.628 188.252 207.696 188.46 207.831C188.669 207.963 188.826 208.141 188.933 208.363C189.039 208.584 189.093 208.826 189.093 209.091V209.475C189.093 209.74 189.038 209.984 188.929 210.206C188.823 210.427 188.664 210.604 188.453 210.739C188.245 210.872 187.989 210.938 187.686 210.938C187.378 210.938 187.119 210.872 186.909 210.739C186.698 210.604 186.538 210.427 186.429 210.206C186.32 209.984 186.266 209.74 186.266 209.475ZM186.99 209.091V209.475C186.99 209.695 187.042 209.893 187.146 210.068C187.251 210.241 187.431 210.327 187.686 210.327C187.935 210.327 188.11 210.241 188.212 210.068C188.316 209.893 188.368 209.695 188.368 209.475V209.091C188.368 208.871 188.318 208.675 188.219 208.502C188.119 208.327 187.942 208.239 187.686 208.239C187.438 208.239 187.259 208.327 187.15 208.502C187.044 208.675 186.99 208.871 186.99 209.091ZM186.536 215.001L191.536 207.728H192.345L187.345 215.001H186.536Z" fill="white"/>
<path d="M32.5824 183.756V183.032L35.7784 177.975H36.304V179.097H35.9489L33.5341 182.918V182.975H37.8381V183.756H32.5824ZM36.0057 185.248V183.536V183.199V177.975H36.8438V185.248H36.0057ZM39.4521 185.305C39.2769 185.305 39.1265 185.242 39.0011 185.117C38.8756 184.991 38.8129 184.841 38.8129 184.666C38.8129 184.49 38.8756 184.34 39.0011 184.215C39.1265 184.089 39.2769 184.026 39.4521 184.026C39.6272 184.026 39.7776 184.089 39.9031 184.215C40.0285 184.34 40.0913 184.49 40.0913 184.666C40.0913 184.782 40.0617 184.888 40.0025 184.985C39.9457 185.082 39.8687 185.16 39.7717 185.22C39.677 185.276 39.5704 185.305 39.4521 185.305ZM43.2686 177.975V185.248H42.388V178.899H42.3453L40.5698 180.078V179.183L42.388 177.975H43.2686ZM47.6756 177.876C47.9739 177.878 48.2722 177.935 48.5705 178.046C48.8688 178.158 49.141 178.342 49.3873 178.6C49.6335 178.856 49.8311 179.205 49.9803 179.648C50.1294 180.091 50.204 180.646 50.204 181.313C50.204 181.96 50.1425 182.534 50.0194 183.036C49.8986 183.535 49.7234 183.957 49.4938 184.3C49.2665 184.643 48.9895 184.904 48.6628 185.081C48.3385 185.259 47.9715 185.347 47.562 185.347C47.1548 185.347 46.7914 185.267 46.4718 185.106C46.1545 184.943 45.8941 184.716 45.6905 184.428C45.4893 184.136 45.3603 183.799 45.3034 183.416H46.1699C46.248 183.749 46.4031 184.025 46.6351 184.243C46.8695 184.458 47.1784 184.566 47.562 184.566C48.123 184.566 48.5658 184.321 48.8901 183.831C49.2168 183.341 49.3801 182.649 49.3801 181.754H49.3233C49.1908 181.953 49.0333 182.124 48.851 182.269C48.6687 182.413 48.4663 182.524 48.2438 182.602C48.0212 182.68 47.7845 182.72 47.5336 182.72C47.1169 182.72 46.7346 182.617 46.3865 182.411C46.0409 182.202 45.7639 181.917 45.5556 181.555C45.3496 181.19 45.2466 180.774 45.2466 180.305C45.2466 179.86 45.3461 179.453 45.5449 179.083C45.7462 178.712 46.0279 178.416 46.3901 178.195C46.7547 177.975 47.1832 177.869 47.6756 177.876ZM47.6756 178.657C47.3773 178.657 47.1086 178.732 46.8695 178.881C46.6328 179.028 46.4445 179.226 46.3049 179.477C46.1676 179.726 46.0989 180.002 46.0989 180.305C46.0989 180.608 46.1652 180.884 46.2978 181.132C46.4327 181.378 46.6162 181.575 46.8482 181.722C47.0826 181.866 47.3489 181.938 47.6472 181.938C47.8721 181.938 48.0816 181.895 48.2757 181.807C48.4699 181.717 48.6391 181.595 48.7836 181.441C48.9303 181.285 49.0452 181.109 49.128 180.912C49.2109 180.713 49.2523 180.506 49.2523 180.291C49.2523 180.006 49.1837 179.74 49.0463 179.492C48.9114 179.243 48.7244 179.042 48.4853 178.888C48.2485 178.734 47.9786 178.657 47.6756 178.657ZM55.3079 183.884V183.501C55.3079 183.236 55.3623 182.993 55.4712 182.773C55.5825 182.55 55.7435 182.373 55.9542 182.24C56.1673 182.105 56.4253 182.038 56.7283 182.038C57.0361 182.038 57.2942 182.105 57.5025 182.24C57.7108 182.373 57.8683 182.55 57.9748 182.773C58.0813 182.993 58.1346 183.236 58.1346 183.501V183.884C58.1346 184.149 58.0801 184.393 57.9712 184.616C57.8647 184.836 57.7061 185.014 57.4954 185.149C57.2871 185.281 57.0314 185.347 56.7283 185.347C56.4206 185.347 56.1613 185.281 55.9506 185.149C55.7399 185.014 55.5801 184.836 55.4712 184.616C55.3623 184.393 55.3079 184.149 55.3079 183.884ZM56.0323 183.501V183.884C56.0323 184.105 56.0844 184.302 56.1886 184.477C56.2927 184.65 56.4727 184.737 56.7283 184.737C56.9769 184.737 57.1521 184.65 57.2539 184.477C57.3581 184.302 57.4102 184.105 57.4102 183.884V183.501C57.4102 183.281 57.3604 183.084 57.261 182.911C57.1616 182.736 56.984 182.649 56.7283 182.649C56.4798 182.649 56.301 182.736 56.1921 182.911C56.0856 183.084 56.0323 183.281 56.0323 183.501ZM51.6857 179.722V179.339C51.6857 179.074 51.7402 178.831 51.8491 178.611C51.9603 178.388 52.1213 178.211 52.332 178.078C52.5451 177.943 52.8031 177.876 53.1062 177.876C53.4139 177.876 53.672 177.943 53.8803 178.078C54.0887 178.211 54.2461 178.388 54.3526 178.611C54.4592 178.831 54.5124 179.074 54.5124 179.339V179.722C54.5124 179.988 54.458 180.231 54.3491 180.454C54.2425 180.674 54.0839 180.852 53.8732 180.987C53.6649 181.119 53.4092 181.185 53.1062 181.185C52.7984 181.185 52.5392 181.119 52.3285 180.987C52.1178 180.852 51.958 180.674 51.8491 180.454C51.7402 180.231 51.6857 179.988 51.6857 179.722ZM52.4102 179.339V179.722C52.4102 179.943 52.4622 180.14 52.5664 180.315C52.6706 180.488 52.8505 180.575 53.1062 180.575C53.3548 180.575 53.5299 180.488 53.6317 180.315C53.7359 180.14 53.788 179.943 53.788 179.722V179.339C53.788 179.119 53.7383 178.922 53.6388 178.749C53.5394 178.574 53.3619 178.487 53.1062 178.487C52.8576 178.487 52.6789 178.574 52.57 178.749C52.4634 178.922 52.4102 179.119 52.4102 179.339ZM51.9556 185.248L56.9556 177.975H57.7653L52.7653 185.248H51.9556Z" fill="white"/>
<path d="M3.30966 89.4673V96.74H2.42898V90.3906H2.38636L0.610795 91.5696V90.6747L2.42898 89.4673H3.30966ZM7.77344 96.8395C7.2384 96.8395 6.78267 96.6939 6.40625 96.4027C6.02983 96.1091 5.74219 95.6841 5.54332 95.1278C5.34446 94.5691 5.24503 93.8944 5.24503 93.1037C5.24503 92.3177 5.34446 91.6465 5.54332 91.0902C5.74455 90.5315 6.03338 90.1053 6.4098 89.8118C6.78859 89.5158 7.24313 89.3679 7.77344 89.3679C8.30374 89.3679 8.7571 89.5158 9.13352 89.8118C9.51231 90.1053 9.80114 90.5315 10 91.0902C10.2012 91.6465 10.3018 92.3177 10.3018 93.1037C10.3018 93.8944 10.2024 94.5691 10.0036 95.1278C9.80469 95.6841 9.51705 96.1091 9.14062 96.4027C8.7642 96.6939 8.30848 96.8395 7.77344 96.8395ZM7.77344 96.0582C8.30374 96.0582 8.71567 95.8025 9.00923 95.2912C9.30279 94.7798 9.44957 94.0506 9.44957 93.1037C9.44957 92.4739 9.3821 91.9377 9.24716 91.495C9.11458 91.0523 8.92282 90.7149 8.67188 90.4829C8.4233 90.2509 8.12382 90.1349 7.77344 90.1349C7.24787 90.1349 6.83712 90.3941 6.54119 90.9126C6.24527 91.4287 6.0973 92.1591 6.0973 93.1037C6.0973 93.7334 6.16359 94.2684 6.29616 94.7088C6.42874 95.1491 6.61932 95.4841 6.8679 95.7137C7.11884 95.9434 7.42069 96.0582 7.77344 96.0582ZM12.0224 96.7968C11.8472 96.7968 11.6969 96.7341 11.5714 96.6086C11.4459 96.4832 11.3832 96.3328 11.3832 96.1576C11.3832 95.9824 11.4459 95.8321 11.5714 95.7066C11.6969 95.5812 11.8472 95.5184 12.0224 95.5184C12.1976 95.5184 12.3479 95.5812 12.4734 95.7066C12.5988 95.8321 12.6616 95.9824 12.6616 96.1576C12.6616 96.2736 12.632 96.3802 12.5728 96.4772C12.516 96.5743 12.439 96.6524 12.342 96.7116C12.2473 96.7684 12.1407 96.7968 12.0224 96.7968ZM16.3352 96.8395C15.8665 96.8395 15.4486 96.759 15.0817 96.598C14.7171 96.437 14.4271 96.2133 14.2116 95.9268C13.9986 95.638 13.8826 95.303 13.8636 94.9218H14.7585C14.7775 95.1562 14.858 95.3586 15 95.5291C15.142 95.6972 15.3279 95.8274 15.5575 95.9197C15.7872 96.012 16.0417 96.0582 16.321 96.0582C16.6335 96.0582 16.9105 96.0038 17.152 95.8949C17.3935 95.7859 17.5829 95.6344 17.7202 95.4403C17.8575 95.2462 17.9261 95.0213 17.9261 94.7656C17.9261 94.4981 17.8598 94.2625 17.7273 94.0589C17.5947 93.8529 17.4006 93.692 17.1449 93.576C16.8892 93.46 16.5767 93.402 16.2074 93.402H15.625V92.6207H16.2074C16.4962 92.6207 16.7495 92.5686 16.9673 92.4645C17.1875 92.3603 17.3591 92.2135 17.4822 92.0241C17.6077 91.8347 17.6705 91.6122 17.6705 91.3565C17.6705 91.1103 17.616 90.896 17.5071 90.7137C17.3982 90.5315 17.2443 90.3894 17.0455 90.2876C16.849 90.1858 16.617 90.1349 16.3494 90.1349C16.0985 90.1349 15.8617 90.1811 15.6392 90.2734C15.419 90.3634 15.2391 90.4948 15.0994 90.6676C14.9598 90.838 14.884 91.044 14.8722 91.2855H14.0199C14.0341 90.9043 14.1489 90.5705 14.3643 90.2841C14.5798 89.9952 14.8615 89.7703 15.2095 89.6093C15.5599 89.4484 15.9446 89.3679 16.3636 89.3679C16.8134 89.3679 17.1993 89.459 17.5213 89.6413C17.8433 89.8212 18.0907 90.0591 18.2635 90.3551C18.4363 90.651 18.5227 90.9706 18.5227 91.3139C18.5227 91.7234 18.415 92.0726 18.1996 92.3615C17.9865 92.6503 17.6965 92.8503 17.3295 92.9616V93.0184C17.7888 93.0942 18.1475 93.2895 18.4055 93.6044C18.6636 93.9169 18.7926 94.3039 18.7926 94.7656C18.7926 95.1609 18.6849 95.5161 18.4695 95.8309C18.2564 96.1434 17.9652 96.3896 17.5959 96.5696C17.2266 96.7495 16.8063 96.8395 16.3352 96.8395ZM22.7024 96.8395C22.2337 96.8395 21.8158 96.759 21.4489 96.598C21.0843 96.437 20.7943 96.2133 20.5788 95.9268C20.3658 95.638 20.2498 95.303 20.2308 94.9218H21.1257C21.1446 95.1562 21.2251 95.3586 21.3672 95.5291C21.5092 95.6972 21.6951 95.8274 21.9247 95.9197C22.1544 96.012 22.4089 96.0582 22.6882 96.0582C23.0007 96.0582 23.2777 96.0038 23.5192 95.8949C23.7607 95.7859 23.95 95.6344 24.0874 95.4403C24.2247 95.2462 24.2933 95.0213 24.2933 94.7656C24.2933 94.4981 24.227 94.2625 24.0945 94.0589C23.9619 93.8529 23.7678 93.692 23.5121 93.576C23.2564 93.46 22.9439 93.402 22.5746 93.402H21.9922V92.6207H22.5746C22.8634 92.6207 23.1167 92.5686 23.3345 92.4645C23.5547 92.3603 23.7263 92.2135 23.8494 92.0241C23.9749 91.8347 24.0376 91.6122 24.0376 91.3565C24.0376 91.1103 23.9832 90.896 23.8743 90.7137C23.7654 90.5315 23.6115 90.3894 23.4126 90.2876C23.2161 90.1858 22.9841 90.1349 22.7166 90.1349C22.4657 90.1349 22.2289 90.1811 22.0064 90.2734C21.7862 90.3634 21.6063 90.4948 21.4666 90.6676C21.3269 90.838 21.2512 91.044 21.2393 91.2855H20.3871C20.4013 90.9043 20.5161 90.5705 20.7315 90.2841C20.947 89.9952 21.2287 89.7703 21.5767 89.6093C21.9271 89.4484 22.3118 89.3679 22.7308 89.3679C23.1806 89.3679 23.5665 89.459 23.8885 89.6413C24.2105 89.8212 24.4579 90.0591 24.6307 90.3551C24.8035 90.651 24.8899 90.9706 24.8899 91.3139C24.8899 91.7234 24.7822 92.0726 24.5668 92.3615C24.3537 92.6503 24.0637 92.8503 23.6967 92.9616V93.0184C24.156 93.0942 24.5147 93.2895 24.7727 93.6044C25.0308 93.9169 25.1598 94.3039 25.1598 94.7656C25.1598 95.1609 25.0521 95.5161 24.8366 95.8309C24.6236 96.1434 24.3324 96.3896 23.9631 96.5696C23.5938 96.7495 23.1735 96.8395 22.7024 96.8395ZM30.3196 95.3764V94.9929C30.3196 94.7277 30.3741 94.485 30.483 94.2649C30.5942 94.0423 30.7552 93.8648 30.9659 93.7322C31.179 93.5973 31.437 93.5298 31.7401 93.5298C32.0478 93.5298 32.3059 93.5973 32.5142 93.7322C32.7225 93.8648 32.88 94.0423 32.9865 94.2649C33.093 94.485 33.1463 94.7277 33.1463 94.9929V95.3764C33.1463 95.6415 33.0919 95.8854 32.983 96.1079C32.8764 96.3281 32.7178 96.5056 32.5071 96.6406C32.2988 96.7732 32.0431 96.8395 31.7401 96.8395C31.4323 96.8395 31.1731 96.7732 30.9624 96.6406C30.7517 96.5056 30.5919 96.3281 30.483 96.1079C30.3741 95.8854 30.3196 95.6415 30.3196 95.3764ZM31.044 94.9929V95.3764C31.044 95.5966 31.0961 95.7942 31.2003 95.9694C31.3045 96.1422 31.4844 96.2287 31.7401 96.2287C31.9886 96.2287 32.1638 96.1422 32.2656 95.9694C32.3698 95.7942 32.4219 95.5966 32.4219 95.3764V94.9929C32.4219 94.7727 32.3722 94.5762 32.2727 94.4034C32.1733 94.2282 31.9957 94.1406 31.7401 94.1406C31.4915 94.1406 31.3127 94.2282 31.2038 94.4034C31.0973 94.5762 31.044 94.7727 31.044 94.9929ZM26.6974 91.2145V90.8309C26.6974 90.5658 26.7519 90.3231 26.8608 90.1029C26.9721 89.8804 27.133 89.7029 27.3438 89.5703C27.5568 89.4353 27.8149 89.3679 28.1179 89.3679C28.4257 89.3679 28.6837 89.4353 28.892 89.5703C29.1004 89.7029 29.2578 89.8804 29.3643 90.1029C29.4709 90.3231 29.5241 90.5658 29.5241 90.8309V91.2145C29.5241 91.4796 29.4697 91.7234 29.3608 91.946C29.2543 92.1662 29.0956 92.3437 28.8849 92.4787C28.6766 92.6112 28.4209 92.6775 28.1179 92.6775C27.8101 92.6775 27.5509 92.6112 27.3402 92.4787C27.1295 92.3437 26.9697 92.1662 26.8608 91.946C26.7519 91.7234 26.6974 91.4796 26.6974 91.2145ZM27.4219 90.8309V91.2145C27.4219 91.4346 27.474 91.6323 27.5781 91.8075C27.6823 91.9803 27.8622 92.0667 28.1179 92.0667C28.3665 92.0667 28.5417 91.9803 28.6435 91.8075C28.7476 91.6323 28.7997 91.4346 28.7997 91.2145V90.8309C28.7997 90.6108 28.75 90.4143 28.6506 90.2414C28.5511 90.0663 28.3736 89.9787 28.1179 89.9787C27.8693 89.9787 27.6906 90.0663 27.5817 90.2414C27.4751 90.4143 27.4219 90.6108 27.4219 90.8309ZM26.9673 96.74L31.9673 89.4673H32.777L27.777 96.74H26.9673Z" fill="white"/>
<path d="M56.6097 18.509V17.7846L59.8058 12.7278H60.3313V13.85H59.9762L57.5614 17.671V17.7278H61.8654V18.509H56.6097ZM60.033 20.0005V18.2889V17.9515V12.7278H60.8711V20.0005H60.033ZM63.4794 20.0573C63.3042 20.0573 63.1539 19.9946 63.0284 19.8691C62.9029 19.7437 62.8402 19.5933 62.8402 19.4181C62.8402 19.2429 62.9029 19.0926 63.0284 18.9671C63.1539 18.8417 63.3042 18.7789 63.4794 18.7789C63.6546 18.7789 63.8049 18.8417 63.9304 18.9671C64.0559 19.0926 64.1186 19.2429 64.1186 19.4181C64.1186 19.5341 64.089 19.6407 64.0298 19.7377C63.973 19.8348 63.8961 19.9129 63.799 19.9721C63.7043 20.0289 63.5978 20.0573 63.4794 20.0573ZM67.296 12.7278V20.0005H66.4153V13.6511H66.3727L64.5971 14.8301V13.9352L66.4153 12.7278H67.296ZM71.7029 12.6284C72.0012 12.6307 72.2995 12.6875 72.5978 12.7988C72.8961 12.9101 73.1684 13.0947 73.4146 13.3528C73.6608 13.6085 73.8585 13.9577 74.0076 14.4004C74.1568 14.8431 74.2314 15.3982 74.2314 16.0659C74.2314 16.7122 74.1698 17.2863 74.0467 17.7882C73.926 18.2877 73.7508 18.7091 73.5211 19.0524C73.2939 19.3956 73.0169 19.6561 72.6902 19.8336C72.3658 20.0112 71.9989 20.1 71.5893 20.1C71.1821 20.1 70.8187 20.0195 70.4991 19.8585C70.1819 19.6951 69.9215 19.469 69.7179 19.1802C69.5166 18.889 69.3876 18.5517 69.3308 18.1681H70.1973C70.2754 18.5019 70.4305 18.7777 70.6625 18.9955C70.8968 19.211 71.2058 19.3187 71.5893 19.3187C72.1504 19.3187 72.5931 19.0737 72.9174 18.5836C73.2441 18.0936 73.4075 17.4011 73.4075 16.5062H73.3507C73.2181 16.7051 73.0607 16.8767 72.8784 17.0211C72.6961 17.1655 72.4937 17.2768 72.2711 17.3549C72.0486 17.433 71.8118 17.4721 71.5609 17.4721C71.1442 17.4721 70.7619 17.3691 70.4139 17.1632C70.0682 16.9548 69.7913 16.6696 69.5829 16.3073C69.377 15.9428 69.274 15.5261 69.274 15.0573C69.274 14.6123 69.3734 14.2051 69.5723 13.8357C69.7735 13.4641 70.0552 13.1681 70.4174 12.948C70.782 12.7278 71.2105 12.6213 71.7029 12.6284ZM71.7029 13.4096C71.4047 13.4096 71.1359 13.4842 70.8968 13.6333C70.6601 13.7801 70.4719 13.979 70.3322 14.2299C70.1949 14.4785 70.1262 14.7543 70.1262 15.0573C70.1262 15.3604 70.1925 15.6362 70.3251 15.8848C70.46 16.131 70.6435 16.3275 70.8755 16.4742C71.1099 16.6187 71.3762 16.6909 71.6745 16.6909C71.8994 16.6909 72.109 16.6471 72.3031 16.5595C72.4972 16.4695 72.6665 16.3476 72.8109 16.1937C72.9577 16.0375 73.0725 15.8611 73.1554 15.6646C73.2382 15.4657 73.2797 15.2586 73.2797 15.0431C73.2797 14.759 73.211 14.4927 73.0737 14.2441C72.9387 13.9955 72.7517 13.7943 72.5126 13.6404C72.2759 13.4866 72.006 13.4096 71.7029 13.4096ZM79.3352 18.6369V18.2534C79.3352 17.9882 79.3897 17.7455 79.4986 17.5254C79.6098 17.3028 79.7708 17.1253 79.9815 16.9927C80.1946 16.8578 80.4527 16.7903 80.7557 16.7903C81.0634 16.7903 81.3215 16.8578 81.5298 16.9927C81.7382 17.1253 81.8956 17.3028 82.0021 17.5254C82.1087 17.7455 82.1619 17.9882 82.1619 18.2534V18.6369C82.1619 18.902 82.1075 19.1459 81.9986 19.3684C81.892 19.5886 81.7334 19.7661 81.5227 19.9011C81.3144 20.0337 81.0587 20.1 80.7557 20.1C80.4479 20.1 80.1887 20.0337 79.978 19.9011C79.7673 19.7661 79.6075 19.5886 79.4986 19.3684C79.3897 19.1459 79.3352 18.902 79.3352 18.6369ZM80.0597 18.2534V18.6369C80.0597 18.8571 80.1117 19.0547 80.2159 19.2299C80.3201 19.4027 80.5 19.4892 80.7557 19.4892C81.0043 19.4892 81.1795 19.4027 81.2812 19.2299C81.3854 19.0547 81.4375 18.8571 81.4375 18.6369V18.2534C81.4375 18.0332 81.3878 17.8367 81.2884 17.6639C81.1889 17.4887 81.0114 17.4011 80.7557 17.4011C80.5071 17.4011 80.3284 17.4887 80.2195 17.6639C80.1129 17.8367 80.0597 18.0332 80.0597 18.2534ZM75.7131 14.475V14.0914C75.7131 13.8263 75.7675 13.5836 75.8764 13.3634C75.9877 13.1409 76.1487 12.9634 76.3594 12.8308C76.5724 12.6958 76.8305 12.6284 77.1335 12.6284C77.4413 12.6284 77.6993 12.6958 77.9077 12.8308C78.116 12.9634 78.2734 13.1409 78.38 13.3634C78.4865 13.5836 78.5398 13.8263 78.5398 14.0914V14.475C78.5398 14.7401 78.4853 14.9839 78.3764 15.2065C78.2699 15.4267 78.1113 15.6042 77.9006 15.7392C77.6922 15.8717 77.4366 15.938 77.1335 15.938C76.8258 15.938 76.5665 15.8717 76.3558 15.7392C76.1451 15.6042 75.9853 15.4267 75.8764 15.2065C75.7675 14.9839 75.7131 14.7401 75.7131 14.475ZM76.4375 14.0914V14.475C76.4375 14.6951 76.4896 14.8928 76.5938 15.068C76.6979 15.2408 76.8778 15.3272 77.1335 15.3272C77.3821 15.3272 77.5573 15.2408 77.6591 15.068C77.7633 14.8928 77.8153 14.6951 77.8153 14.475V14.0914C77.8153 13.8713 77.7656 13.6748 77.6662 13.5019C77.5668 13.3267 77.3892 13.2392 77.1335 13.2392C76.8849 13.2392 76.7062 13.3267 76.5973 13.5019C76.4908 13.6748 76.4375 13.8713 76.4375 14.0914ZM75.983 20.0005L80.983 12.7278H81.7926L76.7926 20.0005H75.983Z" fill="white"/>
</svg>
